<svg xmlns="http://www.w3.org/2000/svg" style="display:none"><symbol id="au-logo" viewbox="0 0 91.01 18.2"><title>au-logo</title><path d="M6.34 18H0L18 0v6.36zm29.59-9a8.81 8.81 0 0 1-.7 3.51 8.93 8.93 0 0 1-1.92 2.85 9.24 9.24 0 0 1-2.86 1.92 9 9 0 0 1-5.89.39 9.16 9.16 0 0 1-2.15-.91 9 9 0 0 1-3.21-3.22 9.1 9.1 0 0 1-.91-2.15A8.77 8.77 0 0 1 18 9h4.49a4.26 4.26 0 0 0 .36 1.73 4.6 4.6 0 0 0 2.4 2.4 4.27 4.27 0 0 0 1.73.36 4.33 4.33 0 0 0 1.75-.36 4.63 4.63 0 0 0 1.43-1 4.47 4.47 0 0 0 1-1.43 4.35 4.35 0 0 0 .29-1.7h4.49zM48 6.89l-1.24-2.56-1.11 2.56H48zm-1.2-3.94l2.83 6h-.71l-.71-1.49h-2.8L44.75 9h-.67zm7 3.94l-1.24-2.56-1.11 2.56h2.3zm-1.2-3.94l2.83 6h-.72L54 7.46h-2.8L50.54 9h-.66zm5.38 3a1.59 1.59 0 0 0 .54-.09 1.17 1.17 0 0 0 .4-.23 1 1 0 0 0 .24-.35 1.11 1.11 0 0 0 0-.84 1 1 0 0 0-.24-.35 1.1 1.1 0 0 0-.4-.23 1.59 1.59 0 0 0-.54-.09h-1.39V6h1.34zM56 3.24h2a2.14 2.14 0 0 1 .77.13 1.71 1.71 0 0 1 .57.36 1.59 1.59 0 0 1 .36.53 1.68 1.68 0 0 1 .13.65 1.7 1.7 0 0 1-.11.6 1.48 1.48 0 0 1-.31.5 1.68 1.68 0 0 1-.5.36 2 2 0 0 1-.66.19L59.88 9h-.75l-1.64-2.44h-.9V9H56V3.24zm4.82 0h.62V5.7h3V3.24h.62V9h-.61V6.27h-3V9h-.66V3.24zm5.5 0h.62v3.67a2 2 0 0 0 .13.77 1.4 1.4 0 0 0 .34.5 1.25 1.25 0 0 0 .48.27 1.81 1.81 0 0 0 1.08 0 1.3 1.3 0 0 0 .48-.27 1.36 1.36 0 0 0 .34-.5 2 2 0 0 0 .13-.77V3.24h.63V7a2.19 2.19 0 0 1-.18.92A1.95 1.95 0 0 1 69.18 9a2.35 2.35 0 0 1-1.54 0 2 2 0 0 1-1.16-1.06A2.19 2.19 0 0 1 66.3 7V3.24zM72 7.3a1.33 1.33 0 0 0 .09.49 1.12 1.12 0 0 0 .61.65 1.22 1.22 0 0 0 .49.1 1.39 1.39 0 0 0 .5-.09 1.19 1.19 0 0 0 .39-.24 1.11 1.11 0 0 0 .35-.82.79.79 0 0 0-.1-.4 1 1 0 0 0-.26-.3 2 2 0 0 0-.38-.23l-.45-.19-.62-.27a2.27 2.27 0 0 1-.52-.3 1.47 1.47 0 0 1-.36-.43 1.3 1.3 0 0 1-.14-.64 1.53 1.53 0 0 1 .12-.63 1.47 1.47 0 0 1 .28-.45 1.49 1.49 0 0 1 .5-.32 1.79 1.79 0 0 1 .65-.11 1.73 1.73 0 0 1 .66.12 1.52 1.52 0 0 1 .51.34 1.45 1.45 0 0 1 .33.51 1.7 1.7 0 0 1 .11.64h-.58a1 1 0 0 0-.27-.73 1 1 0 0 0-.71-.28 1 1 0 0 0-.71.26.9.9 0 0 0-.28.68.69.69 0 0 0 .11.39 1 1 0 0 0 .28.28 2.18 2.18 0 0 0 .4.21l.47.19.6.27a2.21 2.21 0 0 1 .5.32 1.41 1.41 0 0 1 .35.45 1.48 1.48 0 0 1 .13.66 1.65 1.65 0 0 1-.54 1.25 1.76 1.76 0 0 1-.59.35 2.11 2.11 0 0 1-.72.12 1.86 1.86 0 0 1-.72-.15 1.73 1.73 0 0 1-.57-.38 1.78 1.78 0 0 1-.52-1.29H72zm-27.36 4.86h.63v3.67a2 2 0 0 0 .13.77 1.4 1.4 0 0 0 .34.5 1.24 1.24 0 0 0 .48.27 1.82 1.82 0 0 0 1.08 0 1.26 1.26 0 0 0 .48-.27 1.39 1.39 0 0 0 .34-.5 2 2 0 0 0 .13-.77v-3.67h.63v3.76a2.19 2.19 0 0 1-.18.92 2 2 0 0 1-1.16 1.06 2.35 2.35 0 0 1-1.54 0 2 2 0 0 1-1.16-1.06 2.2 2.2 0 0 1-.18-.92v-3.76zm5.53-.2l4 4.61v-4.4h.63v6l-4-4.59v4.39h-.63V12zm6 .2h.62v5.75h-.63v-5.75zm1.34 0h.67l1.9 4.53 1.77-4.52h.66l-2.42 6zm5.71 0h3.45v.57h-2.84v1.89h2.59v.58h-2.59v2.13h2.83v.58h-3.44v-5.75zm6.41 2.75a1.6 1.6 0 0 0 .54-.09 1.19 1.19 0 0 0 .39-.23 1.05 1.05 0 0 0 .32-.76 1.08 1.08 0 0 0-.08-.42 1 1 0 0 0-.24-.35 1.12 1.12 0 0 0-.39-.23 1.57 1.57 0 0 0-.54-.09h-1.34v2.18h1.34zm-2-2.75h2a2.14 2.14 0 0 1 .77.13 1.71 1.71 0 0 1 .57.36 1.56 1.56 0 0 1 .36.53 1.66 1.66 0 0 1 .13.65 1.7 1.7 0 0 1-.11.6 1.49 1.49 0 0 1-.31.5 1.65 1.65 0 0 1-.5.36 2 2 0 0 1-.66.18l1.66 2.43h-.71l-1.64-2.42h-.9v2.42h-.62v-5.74zm5.16 4.06a1.34 1.34 0 0 0 .09.49 1.21 1.21 0 0 0 .24.39 1.15 1.15 0 0 0 .86.35 1.38 1.38 0 0 0 .5-.09 1.1 1.1 0 0 0 .73-1.06.78.78 0 0 0-.1-.4 1 1 0 0 0-.26-.3 2.13 2.13 0 0 0-.38-.23l-.45-.19-.62-.25a2.27 2.27 0 0 1-.52-.31 1.5 1.5 0 0 1-.36-.43 1.29 1.29 0 0 1-.14-.64 1.52 1.52 0 0 1 .45-1.08 1.47 1.47 0 0 1 .5-.32A1.77 1.77 0 0 1 74 12a1.74 1.74 0 0 1 .66.12 1.48 1.48 0 0 1 .84.84 1.73 1.73 0 0 1 .11.64H75a1 1 0 0 0-.27-.75 1 1 0 0 0-.73-.23 1 1 0 0 0-.71.26.89.89 0 0 0-.28.69.7.7 0 0 0 .11.39 1 1 0 0 0 .28.28 2.13 2.13 0 0 0 .4.21l.47.19.6.25a2.24 2.24 0 0 1 .5.32 1.41 1.41 0 0 1 .35.45 1.47 1.47 0 0 1 .13.66 1.65 1.65 0 0 1-.54 1.25 1.75 1.75 0 0 1-.59.35A2.09 2.09 0 0 1 74 18a1.82 1.82 0 0 1-1.29-.51 1.78 1.78 0 0 1-.35-.49 1.84 1.84 0 0 1-.14-.72h.62zm4.11-4.06h.62v5.75h-.58v-5.75zm3 .57h-1.62v-.57h4v.57h-1.7v5.17H80v-5.16zm3-.57h3.45v.57h-2.76v1.89h2.59v.58h-2.59v2.13h2.83v.58H83v-5.75zm5.74.57H87v-.57h4v.57h-1.67v5.17h-.62v-5.16z"/></symbol><symbol id="left-arrow" viewbox="-37.3 98 188.7 306"><path d="M151.4 368.3L34.1 251l117.3-117.3L115.6 98-37.3 251l152.9 153z"/></symbol><symbol id="right-arrov" viewbox="-37.3 98 188.7 306"><path d="M-1.7 98l-35.6 35.7L79.9 251-37.3 368.3-1.7 404l153.1-153z"/></symbol></svg>